<?xml version="1.0" encoding="UTF-8"?>
<svg width="76.38mm" height="76.38mm" version="1.1" viewBox="0 0 76.38 76.38" xmlns="http://www.w3.org/2000/svg" xmlns:cc="http://creativecommons.org/ns#" xmlns:dc="http://purl.org/dc/elements/1.1/" xmlns:rdf="http://www.w3.org/1999/02/22-rdf-syntax-ns#">
 <metadata>
  <rdf:RDF>
   <cc:Work rdf:about="">
    <dc:format>image/svg+xml</dc:format>
    <dc:type rdf:resource="http://purl.org/dc/dcmitype/StillImage"/>
    <dc:title/>
   </cc:Work>
  </rdf:RDF>
 </metadata>
 <g transform="translate(-116.7 -63.731)">
  <rect x="116.7" y="63.731" width="76.38" height="76.38" rx="0" ry="0" fill="none" stroke="#fff" stroke-dasharray="0, 30.5051" stroke-width="2.7732"/>
  <path transform="scale(.26458)" d="m465.66 348.76 0.17383 1.1777c0.0948 0.64827 1.4856 8.2409 3.0918 16.873 1.6062 8.6321 4.0289 21.666 5.3828 28.963 1.3539 7.2973 2.7342 14.618 3.0684 16.268 1.1525 5.6906 4.5964 11.454 9.8574 16.496 2.7205 2.6073 5.9537 4.9819 18.586 13.65 8.4112 5.7719 15.947 11.07 16.746 11.773 1.7299 1.5227 3.3616 3.9806 4.123 6.2109 0.46106 1.3504 4.7383 19.785 4.7383 20.422 0 0.11225 0.18168 0.0686 0.40429-0.0996 0.22247-0.16807 6.757-5.1544 14.521-11.08l14.117-10.773-0.43164-1.6621c-0.54369-2.0861-1.0981-6.8606-1.1016-9.4883-5e-3 -3.4007-1.4283-9.0628-3.1582-12.561-2.6-5.257-7.7961-11-12.596-13.922-1.3928-0.84782-4.8384-2.4599-7.6562-3.582-8.0185-3.1931-8.6475-3.6623-19.955-14.867-5.4284-5.3792-10.472-10.152-11.207-10.607-2.1905-1.357-4.7157-1.9368-7.6953-1.7656-1.4401 0.0828-3.1127 0.35854-3.7168 0.61328l-1.0977 0.46484 6.1133 5.6309c10.707 9.8609 16.641 16.425 17.234 19.066 0.59501 2.6482-1.5529 4.8389-4.334 4.4219-1.3335-0.19997-1.6296-0.43866-3.7754-3.0293-4.4113-5.326-8.3438-9.3028-16.217-16.402-4.3422-3.9156-8.1348-7.5061-8.4277-7.9785-0.74301-1.1983-0.68355-3.2299 0.125-4.2578l0.65821-0.83789-5.043-16.762c-3.596-11.952-5.2981-17.133-5.9297-18.053-1.1512-1.6769-3.578-3.4973-5.2637-3.9473zm239.72 0.19531c-0.24686 9e-3 -0.62365 0.0942-1.1797 0.25781-1.6253 0.4782-4.0903 2.4576-5.1035 4.0977-0.35418 0.57329-2.901 8.6061-5.6602 17.852l-5.0176 16.811 0.625 0.87695c0.76501 1.0744 0.80741 2.9688 0.0918 4.123-0.29288 0.4724-4.0856 4.0629-8.4277 7.9785-7.8689 7.0959-11.807 11.077-16.209 16.393-2.046 2.4703-2.477 2.8285-3.6426 3.0254-1.6845 0.2846-2.8578-0.19944-3.791-1.5644-0.984-1.4392-0.94048-3.0491 0.125-4.6191 2.7982-4.1234 7.4857-9.0595 16.424-17.291l6.1152-5.6309-1.0996-0.46484c-0.60412-0.25489-2.2767-0.53051-3.7168-0.61328-2.9796-0.17129-5.5028 0.40858-7.6934 1.7656-0.73527 0.45547-5.7786 5.2282-11.207 10.607-11.308 11.205-11.937 11.674-19.955 14.867-2.8178 1.1221-6.2635 2.7342-7.6562 3.582-4.7996 2.9218-9.9957 8.6649-12.596 13.922-1.7299 3.4977-3.1544 9.1598-3.1582 12.561-3e-3 2.6261-0.55867 7.4014-1.1016 9.4844l-0.43164 1.6582 13.758 10.477c7.5666 5.7624 14.064 10.719 14.439 11.016 0.37523 0.2962 0.71403 0.51058 0.74804 0.47656 0.0354-0.0349 1.0134-4.2837 2.1738-9.4394 1.1604-5.1557 2.3582-10.1 2.6621-10.99 0.76694-2.2462 2.3958-4.6893 4.1621-6.2442 0.8211-0.72275 7.7085-5.575 15.307-10.781 7.5982-5.2063 14.834-10.229 16.08-11.162 5.7796-4.3294 10.404-10.209 12.746-16.203 0.35959-0.92039 1.6883-7.2544 2.9512-14.076 1.2629-6.8219 3.9675-21.351 6.0117-32.287 2.0443-10.936 3.676-20.055 3.625-20.264-0.0346-0.14189-0.15158-0.2083-0.39843-0.19922zm-221.43 12.666c-0.11382-0.0108-0.19957 6e-3 -0.25 0.0566-0.0914 0.0914 0.98151 4.0136 2.3848 8.7168s2.8607 9.594 3.2383 10.867l0.68555 2.3144 1.6133-0.51562c0.88751-0.28381 1.6133-0.66309 1.6133-0.84375 0-1.0831-5.0355-17.067-5.6973-18.084-0.64475-0.9909-2.7911-2.4363-3.5879-2.5117zm204.03 0.043c-0.13557-0.0156-0.4532 0.0295-0.82032 0.1211-1.1986 0.29911-2.8921 1.6272-3.4414 2.6973-0.47426 0.92383-5.377 17.06-5.377 17.697 0 0.20545 0.69171 0.59537 1.5371 0.86523 0.84541 0.2699 1.5774 0.46358 1.627 0.42578 0.0935-0.0681 6.5449-21.526 6.5449-21.77 0-0.019-0.0251-0.0319-0.0703-0.0371zm-15.748 12.422c-0.12733 0.0245-0.33022 0.15002-0.5957 0.28906-0.98759 0.51719-2.538 2.0884-3.5508 3.5996-0.58012 0.86562-2.041 4.7323-2.041 5.4023 0 0.36068 0.23595 0.32514 2.2285-0.33593l1.7441-0.57813 1.0723-3.5371c1.2366-4.0797 1.5246-4.9133 1.1426-4.8398zm-172.96 2e-3c-0.255 0.0813 0.0831 1.0906 1.2207 4.8438l1.0742 3.5449 1.5801 0.54102c2.7212 0.93074 2.6908 0.9577 1.7754-1.7031-1.153-3.3511-2.9843-5.9125-4.9551-6.9316-0.34076-0.17621-0.57941-0.33189-0.69531-0.29492zm101.4 86.492 6e-3 14.357 8e-3 14.357 14.732 9.709c8.1022 5.3394 18.036 11.919 22.076 14.621h2e-3c4.0406 2.7026 7.4564 4.9242 7.5898 4.9356 0.13341 0.0116 0.24218-5.3411 0.24218-11.895v-11.916l-10.598-8.1113c-5.8289-4.4613-15.331-11.735-21.115-16.166-5.7844-4.4306-11.063-8.4694-11.73-8.9746zm-29.773 0.0195-1.2422 0.91797c-0.68345 0.50483-10.733 8.1919-22.33 17.082l-21.086 16.164v11.936h-4e-3c0 6.5647 0.12377 11.887 0.27343 11.828 0.1496-0.0593 10.194-6.6607 22.322-14.67l22.051-14.562 8e-3 -14.348z" stroke-width=".3236"/>
  <path d="m148.47 105.78c-1.5067-0.24663-2.7877-1.1622-3.712-2.653-0.14478-0.23351-0.34715-0.3695-0.78148-0.52512-0.84354-0.30224-1.2837-0.6118-2.0756-1.4598-1.179-1.2625-1.5685-2.1888-1.6349-3.889l-0.0341-0.87304-0.72458-0.74797c-1.1991-1.2378-1.7189-2.3687-1.803-3.9227-0.0472-0.87165-0.0317-0.97432 0.25496-1.6907 0.16785-0.41946 0.39693-0.88674 0.50905-1.0384 0.16538-0.22368 0.18327-0.31423 0.0948-0.47958-0.06-0.11211-0.19567-0.48004-0.3015-0.81762-0.41218-1.3148-0.16113-3.0648 0.71169-4.9608 0.23093-0.50163 0.24179-0.59178 0.16379-1.3591-0.12463-1.2261 0.20208-2.934 0.73975-3.867 0.46735-0.81098 1.6206-1.6541 2.7016-1.975l0.56879-0.16885-0.0601-0.73527c-0.18594-2.2762 1.0996-4.306 3.0479-4.8123 0.26347-0.06847 0.72081-0.30147 1.0163-0.51777 1.4604-1.069 2.9898-1.7467 4.5296-2.0072 1.1237-0.19009 1.9533-0.01796 2.8588 0.59316l0.43781 0.29547 0.31172-0.23708c0.48371-0.3679 1.3194-0.65579 2.07-0.71314 1.4658-0.11198 4.0575 0.93289 5.7634 2.3236 0.10746 0.0876 0.41516 0.21605 0.6838 0.28546 0.71495 0.18471 1.3702 0.56361 1.8216 1.0533 0.79084 0.85796 1.3177 2.494 1.2406 3.8523l-0.034 0.59828 0.69703 0.25288c1.3078 0.47449 2.1204 1.1592 2.6716 2.2511 0.44919 0.88984 0.59509 1.6771 0.58516 3.1575l-9e-3 1.2901 0.40319 0.97685c0.54323 1.3161 0.72295 2.2221 0.64918 3.2724-0.0564 0.80223-0.22451 1.5226-0.45666 1.9564-0.0934 0.17456-0.0697 0.26918 0.14491 0.57892 0.438 0.63203 0.65343 1.3465 0.7098 2.3542 0.045 0.80502 0.0218 1.0198-0.1693 1.563-0.44524 1.2656-1.0052 2.1433-1.8704 2.932l-0.48966 0.44632-0.037 0.87242c-0.0458 1.0802-0.23268 1.802-0.70074 2.7064-0.66182 1.2789-1.9121 2.3154-3.3757 2.7986-0.21968 0.0725-0.3832 0.23059-0.53776 0.51982-0.2745 0.5137-0.98859 1.2876-1.5796 1.712-0.24478 0.17576-0.79672 0.43642-1.2265 0.57925-1.595 0.52998-3.7991 0.27512-5.4139-0.62599-0.34507-0.19255-0.90181-0.6286-1.2372-0.96899l-0.60983-0.6189-0.66763 0.66512c-0.74887 0.74605-1.8449 1.3406-2.9632 1.6074-0.79601 0.18992-2.2395 0.27503-2.8817 0.16991zm2.3933-1.8678c1.1551-0.19339 2.4562-1.1304 2.9434-2.1198 0.20479-0.41586 0.2305-0.62254 0.26199-2.1061 0.0285-1.3442 5e-3 -1.7366-0.12892-2.1459-0.20489-0.62643-0.54494-1.1039-1.0629-1.4926-0.64943-0.48728-0.83446-0.55255-1.6647-0.58724-0.70546-0.02947-0.81168-0.05958-1.0083-0.28576-0.30479-0.35059-0.28163-0.75576 0.0654-1.144 0.28259-0.31614 0.29294-0.31894 1.1478-0.31096 0.93465 0.0087 1.4142 0.16361 2.2473 0.72589l0.42866 0.2893-0.0275-7.0077-0.0275-7.0077-0.26854-0.45681c-0.31153-0.52996-0.86251-1.0169-1.2322-1.089-0.1417-0.02762-0.44161-0.0015-0.66646 0.05812-0.52847 0.14005-0.85415-5.86e-4 -1.0753-0.4643-0.1525-0.31979-0.1527-0.36708-3e-3 -0.68113 0.23231-0.48715 0.66012-0.67825 1.4973-0.66884 0.64352 0.0072 0.90494 0.08258 1.7268 0.49769 0.042 0.02123 0.064-1.7646 0.0488-3.9686-0.0267-3.8725-0.0344-4.0163-0.22899-4.2769-0.4153-0.556-0.68009-0.67396-1.4704-0.65504-0.44319 0.01061-0.98359 0.10167-1.3837 0.23316-0.63327 0.20811-1.976 0.86736-1.9746 0.96951 3.9e-4 0.0274 0.15801 0.15699 0.35032 0.28797 0.47309 0.32223 1.3344 1.2873 1.6062 1.7997 0.36889 0.69536 0.0498 1.3352-0.66288 1.3291-0.44458-0.0038-0.53918-0.07481-1.1304-0.84885-0.60336-0.79-1.46-1.2971-2.1911-1.2971-0.62481 0-1.2302 0.30842-1.5985 0.8144-0.31266 0.4295-0.5656 1.2362-0.53336 1.701 0.0121 0.17461 0.0297 0.48571 0.0391 0.69133l0.0171 0.37386 0.65433 0.12056c1.4512 0.2674 2.7124 1.12 3.5331 2.3884 0.56382 0.87141 0.79801 1.6558 0.816 2.7332 0.0173 1.0381-0.11933 1.3546-0.66226 1.5338-0.27494 0.09074-0.38074 0.08047-0.61862-0.06005-0.40061-0.23665-0.49898-0.51621-0.49898-1.4181 0-0.68202-0.0421-0.87401-0.32538-1.4851-0.51104-1.1022-1.3585-1.7296-2.6309-1.9475-1.1879-0.20348-2.9839 0.41833-3.5715 1.2365-0.573 0.79789-0.64154 1.1062-0.65349 2.9397l-0.0108 1.6606-0.36689 0.71909c-0.69608 1.3643-0.91876 3.1712-0.49965 4.0544 0.26139 0.55084 0.94631 1.2577 1.5225 1.5713 0.284 0.15457 0.9367 0.40389 1.4505 0.55405 1.0481 0.30633 1.276 0.49501 1.276 1.0562 0 0.36625-0.23707 0.68742-0.60204 0.81564-0.44427 0.15608-3.0415-0.76167-3.6322-1.2834-0.16804-0.14846-0.19242-0.14424-0.3596 0.06222-0.20562 0.25393-0.3392 1.1193-0.26182 1.6962 0.0743 0.554 0.7574 1.9259 1.153 2.3156 0.18289 0.18017 0.55933 0.43619 0.83653 0.56893 0.65103 0.31177 0.78725 0.60162 0.61675 1.3123-0.49836 2.0774 1.0213 4.5344 2.982 4.8212 0.69777 0.10204 0.79854 0.18171 1.1163 0.88258 0.38045 0.83907 0.7047 1.2445 1.3018 1.6276 0.80269 0.51508 1.8398 0.62722 3.3941 0.367zm-1.8453-2.0822c-0.31829-0.17641-0.49136-0.52022-0.49688-0.98705-7e-3 -0.59089-0.24507-1.3698-0.57661-1.8865-0.53359-0.83153-2.0577-1.5724-3.3511-1.6291-0.87374-0.03826-1.2883-0.51683-1.0147-1.1715 0.19287-0.46162 0.62992-0.6702 1.2311-0.58752l0.47104 0.06479 0.062-0.47218c0.0341-0.2597 0.10326-0.57315 0.15374-0.69656 0.0505-0.12341 0.0918-0.30244 0.0918-0.39783 0-0.09539 0.19295-0.56588 0.42877-1.0455 0.45164-0.9186 0.93334-1.4612 1.8668-2.1027 0.62208-0.4275 0.87719-0.53786 1.6665-0.72092 1.5776-0.36587 2.1928-0.10869 2.098 0.87699-0.0353 0.36737-0.42138 0.63954-1.0366 0.7308-1.0853 0.16099-1.9547 0.55655-2.5034 1.1389-0.62154 0.65972-1.2729 2.8295-0.96189 3.2043 0.0695 0.08369 0.17585 0.15235 0.23643 0.15258 0.18552 6.83e-4 0.96234 0.55748 1.461 1.0472 0.88291 0.86696 1.4354 2.1771 1.4309 3.3932-2e-3 0.62359-0.14212 0.90566-0.5531 1.1158-0.27178 0.13899-0.41394 0.1335-0.70388-0.0272zm-4.1481-12.021c-0.27593-0.25572-0.34231-0.69118-0.1579-1.0358 0.14478-0.27053 0.61052-0.48301 1.0587-0.48301 0.73265 0 1.6417-0.57114 1.8129-1.139 0.054-0.17913 8e-3 -0.22904-0.3065-0.3307-1.6967-0.54888-2.8946-1.9177-3.6748-4.1993-0.44662-1.306-0.43459-1.9936 0.0393-2.2472 0.51487-0.27555 1.1995 0.01955 1.318 0.56812 0.44129 2.0422 1.365 3.5558 2.478 4.0604 0.33467 0.15174 0.64184 0.2017 1.2278 0.19972 0.89327-3e-3 1.3791-0.18586 2.5352-0.95418 0.91981-0.61126 1.4496-0.60153 1.7117 0.03143 0.17233 0.41605 0.0583 0.74194-0.41653 1.1903-0.42947 0.40556-2.2451 1.3551-2.5912 1.3551-0.23545 0-0.50663 0.2445-0.50663 0.45679 0 0.28383-0.50224 1.156-0.91003 1.5803-0.78317 0.81488-1.6312 1.1865-2.7074 1.1865-0.55682 0-0.6899-0.03501-0.9106-0.23955zm16.934 14.02c1.0102-0.38266 1.7008-1.0778 1.9729-1.9859 0.15938-0.53194 0.57379-0.85361 1.0997-0.85361 0.60339 0 1.08-0.2336 1.7178-0.84196 0.99594-0.94996 1.5112-2.4446 1.2851-3.7281-0.15825-0.89838 2e-3 -1.2837 0.61754-1.4869 0.46705-0.15414 1.2816-1.0678 1.6334-1.8323 0.37887-0.82322 0.43368-1.8708 0.13291-2.5403-0.10219-0.22742-0.20529-0.41349-0.22914-0.41349-0.0238 0-0.16003 0.08228-0.30264 0.18284-0.78271 0.55194-3.0418 1.3554-3.4569 1.2294-0.67652-0.20523-0.8878-0.96345-0.40343-1.4478 0.14164-0.14164 0.32846-0.25904 0.41516-0.26089 0.35235-0.0075 1.8026-0.58583 2.377-0.9479 0.72913-0.45962 1.0798-0.93204 1.3058-1.759 0.29518-1.0801 0.0771-2.3066-0.6759-3.8019l-0.3498-0.69461 0.0584-1.1614c0.12441-2.4743-0.33936-3.5097-1.8765-4.1895-1.3946-0.61678-2.8516-0.50551-3.9478 0.30151-0.93299 0.68683-1.4344 1.7853-1.3985 3.0639 0.0157 0.55935-0.15673 1.0207-0.41912 1.1214-0.35994 0.13812-0.88934 0.06093-1.0968-0.15994-0.33601-0.35766-0.38713-1.3107-0.12464-2.3233 0.60235-2.3238 2.1898-3.7816 4.5148-4.146l0.35841-0.05619 0.0343-0.70527c0.0607-1.2475-0.2582-1.9941-1.1178-2.6168-0.91997-0.66643-2.3983-0.14378-3.2845 1.1612-0.50607 0.74523-0.86636 0.91519-1.3692 0.64593-0.51719-0.27692-0.61683-0.75253-0.27798-1.3268 0.28029-0.47504 1.115-1.3801 1.6343-1.7721 0.33246-0.25094 0.33613-0.26104 0.14653-0.40402-0.72268-0.54498-2.33-1.0815-3.24-1.0815-0.78154 0-1.0731 0.14486-1.4724 0.73164-0.21446 0.3151-0.21979 0.3866-0.21979 2.946 0 1.4427 0.0384 2.623 0.0854 2.623s0.27229-0.06594 0.5007-0.14653c0.5301-0.18703 1.4914-0.18857 1.8503-3e-3 0.33002 0.17065 0.52459 0.64286 0.39997 0.97064-0.15972 0.4201-0.56299 0.64392-1.1645 0.64627-0.32602 0.0013-0.71428 0.07741-0.95719 0.18769-0.77579 0.35222-0.72093-0.6416-0.69181 12.532l0.026 11.748 0.25309 0.53956c0.33917 0.72304 0.96047 1.308 1.8471 1.7391 1.236 0.6009 2.7312 0.72519 3.8097 0.31667zm-2.7247-3.0104c-0.33599-0.33738-0.38663-0.99392-0.15062-1.9528 0.14788-0.60081 0.6527-1.7069 0.94919-2.0797 0.19005-0.23899 1.1746-0.99818 1.681-1.2962l0.46477-0.27355-0.0535-0.60561c-0.0618-0.69915-0.28082-1.4115-0.60927-1.9815-0.46077-0.79958-1.6614-1.5416-2.6772-1.6546-0.79688-0.08863-1.0841-0.22777-1.2399-0.60075-0.11648-0.27878-0.11595-0.37263 4e-3 -0.6591 0.1951-0.46695 0.45666-0.57833 1.2222-0.52044 1.2367 0.09352 2.6832 0.776 3.5371 1.6689 0.73186 0.76525 1.3592 2.1594 1.5082 3.3516l0.0653 0.52289h0.61052c0.46384 0 0.67056 0.04722 0.86041 0.19656 0.3279 0.25793 0.41787 0.68304 0.22393 1.0581-0.16907 0.32696-0.48502 0.45453-1.348 0.54426-1.1716 0.12184-2.3979 0.73572-2.927 1.4652-0.33901 0.46742-0.66601 1.4874-0.66601 2.0775 0 0.87462-0.87643 1.32-1.4548 0.73926zm5.411-11.654c-1.4744-0.19674-2.7554-1.2914-3.0762-2.6287-0.10834-0.4516-0.13129-0.47529-0.56971-0.58774-0.79681-0.20437-1.388-0.47544-2.019-0.92573-1.1468-0.81832-1.3652-1.2922-0.83857-1.8188 0.42516-0.42516 0.7329-0.3801 1.665 0.24382 2.3629 1.5816 4.3035 1.145 5.4508-1.2264 0.22449-0.46397 0.45702-1.0574 0.51674-1.3187 0.2144-0.93826 0.35142-1.2555 0.60386-1.3983 0.37979-0.21478 0.94173-0.04355 1.1755 0.35821 0.17572 0.30197 0.17643 0.34578 0.0182 1.1234-0.0905 0.44503-0.24758 0.97224-0.34899 1.1716-0.10141 0.19934-0.18438 0.41657-0.18438 0.48274 0 0.21653-0.75983 1.4052-1.2398 1.9396-0.55718 0.62031-1.4034 1.1907-2.0247 1.3646-0.51785 0.14499-0.55581 0.28138-0.20596 0.74006 0.3213 0.42125 0.97475 0.72744 1.5525 0.72744 0.78305 0 1.2342 0.34679 1.2342 0.94869 0 0.39506-0.24121 0.68836-0.66225 0.8053-0.1999 0.05551-0.38542 0.09561-0.41228 0.08909-0.0269-0.0065-0.3126-0.04704-0.63496-0.09005z" stroke-width=".097685"/>
 </g>
</svg>
